<?xml version="1.0" encoding="UTF-8"?>
<svg width="512" height="512" viewBox="-100 -100 200 200" data-om-id="jsx:/https:/2ac668c9-1277-4cba-9eed-2c0189183421.claudeusercontent.com/v1/design/projects/2ac668c9-1277-4cba-9eed-2c0189183421/serve/logos-v5.jsx:4654:128:5" xmlns="http://www.w3.org/2000/svg"><g data-om-id="jsx:/https:/2ac668c9-1277-4cba-9eed-2c0189183421.claudeusercontent.com/v1/design/projects/2ac668c9-1277-4cba-9eed-2c0189183421/serve/logos-v5.jsx:2908:79:10"><g transform="rotate(0) translate(0 -54) scale(0.72)" data-om-id="jsx:/https:/2ac668c9-1277-4cba-9eed-2c0189183421.claudeusercontent.com/v1/design/projects/2ac668c9-1277-4cba-9eed-2c0189183421/serve/logos-v5.jsx:2745:74:7"><g data-om-id="jsx:/https:/2ac668c9-1277-4cba-9eed-2c0189183421.claudeusercontent.com/v1/design/projects/2ac668c9-1277-4cba-9eed-2c0189183421/serve/logos-v5.jsx:2336:60:5"><path d="M -33 -30 L -9 30 Q -9 34 -6 34 L 6 34 Q 9 34 9 30 L 33 -30 L 23 -30 L 5 22 Q 5 26 3 26 L -3 26 Q -5 26 -5 22 L -23 -30 Z" fill="#16181D" data-om-id="jsx:/https:/2ac668c9-1277-4cba-9eed-2c0189183421.claudeusercontent.com/v1/design/projects/2ac668c9-1277-4cba-9eed-2c0189183421/serve/logos-v5.jsx:2346:61:7"></path><g data-om-id="jsx:/https:/2ac668c9-1277-4cba-9eed-2c0189183421.claudeusercontent.com/v1/design/projects/2ac668c9-1277-4cba-9eed-2c0189183421/serve/logos-v5.jsx:1816:43:9"><circle cx="0" cy="-30" r="6" fill="#16181D" data-om-id="jsx:/https:/2ac668c9-1277-4cba-9eed-2c0189183421.claudeusercontent.com/v1/design/projects/2ac668c9-1277-4cba-9eed-2c0189183421/serve/logos-v5.jsx:1830:44:11"></circle><rect x="-3.25" y="-20" width="6.5" height="42" rx="3.25" fill="#16181D" data-om-id="jsx:/https:/2ac668c9-1277-4cba-9eed-2c0189183421.claudeusercontent.com/v1/design/projects/2ac668c9-1277-4cba-9eed-2c0189183421/serve/logos-v5.jsx:1893:45:11"></rect></g></g></g><g transform="rotate(40) translate(0 -54) scale(0.72)" data-om-id="jsx:/https:/2ac668c9-1277-4cba-9eed-2c0189183421.claudeusercontent.com/v1/design/projects/2ac668c9-1277-4cba-9eed-2c0189183421/serve/logos-v5.jsx:2745:74:7"><g data-om-id="jsx:/https:/2ac668c9-1277-4cba-9eed-2c0189183421.claudeusercontent.com/v1/design/projects/2ac668c9-1277-4cba-9eed-2c0189183421/serve/logos-v5.jsx:2336:60:5"><path d="M -33 -30 L -9 30 Q -9 34 -6 34 L 6 34 Q 9 34 9 30 L 33 -30 L 23 -30 L 5 22 Q 5 26 3 26 L -3 26 Q -5 26 -5 22 L -23 -30 Z" fill="#16181D" data-om-id="jsx:/https:/2ac668c9-1277-4cba-9eed-2c0189183421.claudeusercontent.com/v1/design/projects/2ac668c9-1277-4cba-9eed-2c0189183421/serve/logos-v5.jsx:2346:61:7"></path><g data-om-id="jsx:/https:/2ac668c9-1277-4cba-9eed-2c0189183421.claudeusercontent.com/v1/design/projects/2ac668c9-1277-4cba-9eed-2c0189183421/serve/logos-v5.jsx:1816:43:9"><circle cx="0" cy="-30" r="6" fill="#16181D" data-om-id="jsx:/https:/2ac668c9-1277-4cba-9eed-2c0189183421.claudeusercontent.com/v1/design/projects/2ac668c9-1277-4cba-9eed-2c0189183421/serve/logos-v5.jsx:1830:44:11"></circle><rect x="-3.25" y="-20" width="6.5" height="42" rx="3.25" fill="#16181D" data-om-id="jsx:/https:/2ac668c9-1277-4cba-9eed-2c0189183421.claudeusercontent.com/v1/design/projects/2ac668c9-1277-4cba-9eed-2c0189183421/serve/logos-v5.jsx:1893:45:11"></rect></g></g></g><g transform="rotate(80) translate(0 -54) scale(0.72)" data-om-id="jsx:/https:/2ac668c9-1277-4cba-9eed-2c0189183421.claudeusercontent.com/v1/design/projects/2ac668c9-1277-4cba-9eed-2c0189183421/serve/logos-v5.jsx:2745:74:7"><g data-om-id="jsx:/https:/2ac668c9-1277-4cba-9eed-2c0189183421.claudeusercontent.com/v1/design/projects/2ac668c9-1277-4cba-9eed-2c0189183421/serve/logos-v5.jsx:2336:60:5"><path d="M -33 -30 L -9 30 Q -9 34 -6 34 L 6 34 Q 9 34 9 30 L 33 -30 L 23 -30 L 5 22 Q 5 26 3 26 L -3 26 Q -5 26 -5 22 L -23 -30 Z" fill="#16181D" data-om-id="jsx:/https:/2ac668c9-1277-4cba-9eed-2c0189183421.claudeusercontent.com/v1/design/projects/2ac668c9-1277-4cba-9eed-2c0189183421/serve/logos-v5.jsx:2346:61:7"></path><g data-om-id="jsx:/https:/2ac668c9-1277-4cba-9eed-2c0189183421.claudeusercontent.com/v1/design/projects/2ac668c9-1277-4cba-9eed-2c0189183421/serve/logos-v5.jsx:1816:43:9"><circle cx="0" cy="-30" r="6" fill="#16181D" data-om-id="jsx:/https:/2ac668c9-1277-4cba-9eed-2c0189183421.claudeusercontent.com/v1/design/projects/2ac668c9-1277-4cba-9eed-2c0189183421/serve/logos-v5.jsx:1830:44:11"></circle><rect x="-3.25" y="-20" width="6.5" height="42" rx="3.25" fill="#16181D" data-om-id="jsx:/https:/2ac668c9-1277-4cba-9eed-2c0189183421.claudeusercontent.com/v1/design/projects/2ac668c9-1277-4cba-9eed-2c0189183421/serve/logos-v5.jsx:1893:45:11"></rect></g></g></g><g transform="rotate(120) translate(0 -54) scale(0.72)" data-om-id="jsx:/https:/2ac668c9-1277-4cba-9eed-2c0189183421.claudeusercontent.com/v1/design/projects/2ac668c9-1277-4cba-9eed-2c0189183421/serve/logos-v5.jsx:2745:74:7"><g data-om-id="jsx:/https:/2ac668c9-1277-4cba-9eed-2c0189183421.claudeusercontent.com/v1/design/projects/2ac668c9-1277-4cba-9eed-2c0189183421/serve/logos-v5.jsx:2336:60:5"><path d="M -33 -30 L -9 30 Q -9 34 -6 34 L 6 34 Q 9 34 9 30 L 33 -30 L 23 -30 L 5 22 Q 5 26 3 26 L -3 26 Q -5 26 -5 22 L -23 -30 Z" fill="#16181D" data-om-id="jsx:/https:/2ac668c9-1277-4cba-9eed-2c0189183421.claudeusercontent.com/v1/design/projects/2ac668c9-1277-4cba-9eed-2c0189183421/serve/logos-v5.jsx:2346:61:7"></path><g data-om-id="jsx:/https:/2ac668c9-1277-4cba-9eed-2c0189183421.claudeusercontent.com/v1/design/projects/2ac668c9-1277-4cba-9eed-2c0189183421/serve/logos-v5.jsx:1816:43:9"><circle cx="0" cy="-30" r="6" fill="#16181D" data-om-id="jsx:/https:/2ac668c9-1277-4cba-9eed-2c0189183421.claudeusercontent.com/v1/design/projects/2ac668c9-1277-4cba-9eed-2c0189183421/serve/logos-v5.jsx:1830:44:11"></circle><rect x="-3.25" y="-20" width="6.5" height="42" rx="3.25" fill="#16181D" data-om-id="jsx:/https:/2ac668c9-1277-4cba-9eed-2c0189183421.claudeusercontent.com/v1/design/projects/2ac668c9-1277-4cba-9eed-2c0189183421/serve/logos-v5.jsx:1893:45:11"></rect></g></g></g><g transform="rotate(160) translate(0 -54) scale(0.72)" data-om-id="jsx:/https:/2ac668c9-1277-4cba-9eed-2c0189183421.claudeusercontent.com/v1/design/projects/2ac668c9-1277-4cba-9eed-2c0189183421/serve/logos-v5.jsx:2745:74:7"><g data-om-id="jsx:/https:/2ac668c9-1277-4cba-9eed-2c0189183421.claudeusercontent.com/v1/design/projects/2ac668c9-1277-4cba-9eed-2c0189183421/serve/logos-v5.jsx:2336:60:5"><path d="M -33 -30 L -9 30 Q -9 34 -6 34 L 6 34 Q 9 34 9 30 L 33 -30 L 23 -30 L 5 22 Q 5 26 3 26 L -3 26 Q -5 26 -5 22 L -23 -30 Z" fill="#16181D" data-om-id="jsx:/https:/2ac668c9-1277-4cba-9eed-2c0189183421.claudeusercontent.com/v1/design/projects/2ac668c9-1277-4cba-9eed-2c0189183421/serve/logos-v5.jsx:2346:61:7"></path><g data-om-id="jsx:/https:/2ac668c9-1277-4cba-9eed-2c0189183421.claudeusercontent.com/v1/design/projects/2ac668c9-1277-4cba-9eed-2c0189183421/serve/logos-v5.jsx:1816:43:9"><circle cx="0" cy="-30" r="6" fill="#16181D" data-om-id="jsx:/https:/2ac668c9-1277-4cba-9eed-2c0189183421.claudeusercontent.com/v1/design/projects/2ac668c9-1277-4cba-9eed-2c0189183421/serve/logos-v5.jsx:1830:44:11"></circle><rect x="-3.25" y="-20" width="6.5" height="42" rx="3.25" fill="#16181D" data-om-id="jsx:/https:/2ac668c9-1277-4cba-9eed-2c0189183421.claudeusercontent.com/v1/design/projects/2ac668c9-1277-4cba-9eed-2c0189183421/serve/logos-v5.jsx:1893:45:11"></rect></g></g></g><g transform="rotate(200) translate(0 -54) scale(0.72)" data-om-id="jsx:/https:/2ac668c9-1277-4cba-9eed-2c0189183421.claudeusercontent.com/v1/design/projects/2ac668c9-1277-4cba-9eed-2c0189183421/serve/logos-v5.jsx:2745:74:7"><g data-om-id="jsx:/https:/2ac668c9-1277-4cba-9eed-2c0189183421.claudeusercontent.com/v1/design/projects/2ac668c9-1277-4cba-9eed-2c0189183421/serve/logos-v5.jsx:2336:60:5"><path d="M -33 -30 L -9 30 Q -9 34 -6 34 L 6 34 Q 9 34 9 30 L 33 -30 L 23 -30 L 5 22 Q 5 26 3 26 L -3 26 Q -5 26 -5 22 L -23 -30 Z" fill="#16181D" data-om-id="jsx:/https:/2ac668c9-1277-4cba-9eed-2c0189183421.claudeusercontent.com/v1/design/projects/2ac668c9-1277-4cba-9eed-2c0189183421/serve/logos-v5.jsx:2346:61:7"></path><g data-om-id="jsx:/https:/2ac668c9-1277-4cba-9eed-2c0189183421.claudeusercontent.com/v1/design/projects/2ac668c9-1277-4cba-9eed-2c0189183421/serve/logos-v5.jsx:1816:43:9"><circle cx="0" cy="-30" r="6" fill="#16181D" data-om-id="jsx:/https:/2ac668c9-1277-4cba-9eed-2c0189183421.claudeusercontent.com/v1/design/projects/2ac668c9-1277-4cba-9eed-2c0189183421/serve/logos-v5.jsx:1830:44:11"></circle><rect x="-3.25" y="-20" width="6.5" height="42" rx="3.25" fill="#16181D" data-om-id="jsx:/https:/2ac668c9-1277-4cba-9eed-2c0189183421.claudeusercontent.com/v1/design/projects/2ac668c9-1277-4cba-9eed-2c0189183421/serve/logos-v5.jsx:1893:45:11"></rect></g></g></g><g transform="rotate(240) translate(0 -54) scale(0.72)" data-om-id="jsx:/https:/2ac668c9-1277-4cba-9eed-2c0189183421.claudeusercontent.com/v1/design/projects/2ac668c9-1277-4cba-9eed-2c0189183421/serve/logos-v5.jsx:2745:74:7"><g data-om-id="jsx:/https:/2ac668c9-1277-4cba-9eed-2c0189183421.claudeusercontent.com/v1/design/projects/2ac668c9-1277-4cba-9eed-2c0189183421/serve/logos-v5.jsx:2336:60:5"><path d="M -33 -30 L -9 30 Q -9 34 -6 34 L 6 34 Q 9 34 9 30 L 33 -30 L 23 -30 L 5 22 Q 5 26 3 26 L -3 26 Q -5 26 -5 22 L -23 -30 Z" fill="#16181D" data-om-id="jsx:/https:/2ac668c9-1277-4cba-9eed-2c0189183421.claudeusercontent.com/v1/design/projects/2ac668c9-1277-4cba-9eed-2c0189183421/serve/logos-v5.jsx:2346:61:7"></path><g data-om-id="jsx:/https:/2ac668c9-1277-4cba-9eed-2c0189183421.claudeusercontent.com/v1/design/projects/2ac668c9-1277-4cba-9eed-2c0189183421/serve/logos-v5.jsx:1816:43:9"><circle cx="0" cy="-30" r="6" fill="#16181D" data-om-id="jsx:/https:/2ac668c9-1277-4cba-9eed-2c0189183421.claudeusercontent.com/v1/design/projects/2ac668c9-1277-4cba-9eed-2c0189183421/serve/logos-v5.jsx:1830:44:11"></circle><rect x="-3.25" y="-20" width="6.5" height="42" rx="3.25" fill="#16181D" data-om-id="jsx:/https:/2ac668c9-1277-4cba-9eed-2c0189183421.claudeusercontent.com/v1/design/projects/2ac668c9-1277-4cba-9eed-2c0189183421/serve/logos-v5.jsx:1893:45:11"></rect></g></g></g><g transform="rotate(280) translate(0 -54) scale(0.72)" data-om-id="jsx:/https:/2ac668c9-1277-4cba-9eed-2c0189183421.claudeusercontent.com/v1/design/projects/2ac668c9-1277-4cba-9eed-2c0189183421/serve/logos-v5.jsx:2745:74:7"><g data-om-id="jsx:/https:/2ac668c9-1277-4cba-9eed-2c0189183421.claudeusercontent.com/v1/design/projects/2ac668c9-1277-4cba-9eed-2c0189183421/serve/logos-v5.jsx:2336:60:5"><path d="M -33 -30 L -9 30 Q -9 34 -6 34 L 6 34 Q 9 34 9 30 L 33 -30 L 23 -30 L 5 22 Q 5 26 3 26 L -3 26 Q -5 26 -5 22 L -23 -30 Z" fill="#16181D" data-om-id="jsx:/https:/2ac668c9-1277-4cba-9eed-2c0189183421.claudeusercontent.com/v1/design/projects/2ac668c9-1277-4cba-9eed-2c0189183421/serve/logos-v5.jsx:2346:61:7"></path><g data-om-id="jsx:/https:/2ac668c9-1277-4cba-9eed-2c0189183421.claudeusercontent.com/v1/design/projects/2ac668c9-1277-4cba-9eed-2c0189183421/serve/logos-v5.jsx:1816:43:9"><circle cx="0" cy="-30" r="6" fill="#16181D" data-om-id="jsx:/https:/2ac668c9-1277-4cba-9eed-2c0189183421.claudeusercontent.com/v1/design/projects/2ac668c9-1277-4cba-9eed-2c0189183421/serve/logos-v5.jsx:1830:44:11"></circle><rect x="-3.25" y="-20" width="6.5" height="42" rx="3.25" fill="#16181D" data-om-id="jsx:/https:/2ac668c9-1277-4cba-9eed-2c0189183421.claudeusercontent.com/v1/design/projects/2ac668c9-1277-4cba-9eed-2c0189183421/serve/logos-v5.jsx:1893:45:11"></rect></g></g></g><g transform="rotate(320) translate(0 -54) scale(0.72)" data-om-id="jsx:/https:/2ac668c9-1277-4cba-9eed-2c0189183421.claudeusercontent.com/v1/design/projects/2ac668c9-1277-4cba-9eed-2c0189183421/serve/logos-v5.jsx:2745:74:7"><g data-om-id="jsx:/https:/2ac668c9-1277-4cba-9eed-2c0189183421.claudeusercontent.com/v1/design/projects/2ac668c9-1277-4cba-9eed-2c0189183421/serve/logos-v5.jsx:2336:60:5"><path d="M -33 -30 L -9 30 Q -9 34 -6 34 L 6 34 Q 9 34 9 30 L 33 -30 L 23 -30 L 5 22 Q 5 26 3 26 L -3 26 Q -5 26 -5 22 L -23 -30 Z" fill="#16181D" data-om-id="jsx:/https:/2ac668c9-1277-4cba-9eed-2c0189183421.claudeusercontent.com/v1/design/projects/2ac668c9-1277-4cba-9eed-2c0189183421/serve/logos-v5.jsx:2346:61:7"></path><g data-om-id="jsx:/https:/2ac668c9-1277-4cba-9eed-2c0189183421.claudeusercontent.com/v1/design/projects/2ac668c9-1277-4cba-9eed-2c0189183421/serve/logos-v5.jsx:1816:43:9"><circle cx="0" cy="-30" r="6" fill="#16181D" data-om-id="jsx:/https:/2ac668c9-1277-4cba-9eed-2c0189183421.claudeusercontent.com/v1/design/projects/2ac668c9-1277-4cba-9eed-2c0189183421/serve/logos-v5.jsx:1830:44:11"></circle><rect x="-3.25" y="-20" width="6.5" height="42" rx="3.25" fill="#16181D" data-om-id="jsx:/https:/2ac668c9-1277-4cba-9eed-2c0189183421.claudeusercontent.com/v1/design/projects/2ac668c9-1277-4cba-9eed-2c0189183421/serve/logos-v5.jsx:1893:45:11"></rect></g></g></g></g><circle cx="0" cy="0" r="18" fill="none" stroke="#16181D" stroke-width="4" data-om-id="jsx:/https:/2ac668c9-1277-4cba-9eed-2c0189183421.claudeusercontent.com/v1/design/projects/2ac668c9-1277-4cba-9eed-2c0189183421/serve/logos-v5.jsx:4796:130:7"></circle><circle cx="0" cy="0" r="9" fill="#16181D" data-om-id="jsx:/https:/2ac668c9-1277-4cba-9eed-2c0189183421.claudeusercontent.com/v1/design/projects/2ac668c9-1277-4cba-9eed-2c0189183421/serve/logos-v5.jsx:4884:131:7"></circle></svg>