<?xml version="1.0" encoding="UTF-8"?>
<svg width="512" height="512" viewBox="-100 -100 200 200" xmlns="http://www.w3.org/2000/svg">
  <g>
    <g transform="rotate(0) translate(0 -58) scale(0.45)"><path d="M -36 -30 L 0 32 L 36 -30 L 22 -30 L 0 10 L -22 -30 Z" fill="#16181D"/><circle cx="0" cy="-34" r="9" fill="#16181D"/><path d="M -4 -24 L 4 -24 L 2 8 L -2 8 Z" fill="#16181D"/></g>
    <g transform="rotate(30) translate(0 -58) scale(0.45)"><path d="M -36 -30 L 0 32 L 36 -30 L 22 -30 L 0 10 L -22 -30 Z" fill="#16181D"/><circle cx="0" cy="-34" r="9" fill="#16181D"/><path d="M -4 -24 L 4 -24 L 2 8 L -2 8 Z" fill="#16181D"/></g>
    <g transform="rotate(60) translate(0 -58) scale(0.45)"><path d="M -36 -30 L 0 32 L 36 -30 L 22 -30 L 0 10 L -22 -30 Z" fill="#16181D"/><circle cx="0" cy="-34" r="9" fill="#16181D"/><path d="M -4 -24 L 4 -24 L 2 8 L -2 8 Z" fill="#16181D"/></g>
    <g transform="rotate(90) translate(0 -58) scale(0.45)"><path d="M -36 -30 L 0 32 L 36 -30 L 22 -30 L 0 10 L -22 -30 Z" fill="#16181D"/><circle cx="0" cy="-34" r="9" fill="#16181D"/><path d="M -4 -24 L 4 -24 L 2 8 L -2 8 Z" fill="#16181D"/></g>
    <g transform="rotate(120) translate(0 -58) scale(0.45)"><path d="M -36 -30 L 0 32 L 36 -30 L 22 -30 L 0 10 L -22 -30 Z" fill="#16181D"/><circle cx="0" cy="-34" r="9" fill="#16181D"/><path d="M -4 -24 L 4 -24 L 2 8 L -2 8 Z" fill="#16181D"/></g>
    <g transform="rotate(150) translate(0 -58) scale(0.45)"><path d="M -36 -30 L 0 32 L 36 -30 L 22 -30 L 0 10 L -22 -30 Z" fill="#16181D"/><circle cx="0" cy="-34" r="9" fill="#16181D"/><path d="M -4 -24 L 4 -24 L 2 8 L -2 8 Z" fill="#16181D"/></g>
    <g transform="rotate(180) translate(0 -58) scale(0.45)"><path d="M -36 -30 L 0 32 L 36 -30 L 22 -30 L 0 10 L -22 -30 Z" fill="#16181D"/><circle cx="0" cy="-34" r="9" fill="#16181D"/><path d="M -4 -24 L 4 -24 L 2 8 L -2 8 Z" fill="#16181D"/></g>
    <g transform="rotate(210) translate(0 -58) scale(0.45)"><path d="M -36 -30 L 0 32 L 36 -30 L 22 -30 L 0 10 L -22 -30 Z" fill="#16181D"/><circle cx="0" cy="-34" r="9" fill="#16181D"/><path d="M -4 -24 L 4 -24 L 2 8 L -2 8 Z" fill="#16181D"/></g>
    <g transform="rotate(240) translate(0 -58) scale(0.45)"><path d="M -36 -30 L 0 32 L 36 -30 L 22 -30 L 0 10 L -22 -30 Z" fill="#16181D"/><circle cx="0" cy="-34" r="9" fill="#16181D"/><path d="M -4 -24 L 4 -24 L 2 8 L -2 8 Z" fill="#16181D"/></g>
    <g transform="rotate(270) translate(0 -58) scale(0.45)"><path d="M -36 -30 L 0 32 L 36 -30 L 22 -30 L 0 10 L -22 -30 Z" fill="#16181D"/><circle cx="0" cy="-34" r="9" fill="#16181D"/><path d="M -4 -24 L 4 -24 L 2 8 L -2 8 Z" fill="#16181D"/></g>
    <g transform="rotate(300) translate(0 -58) scale(0.45)"><path d="M -36 -30 L 0 32 L 36 -30 L 22 -30 L 0 10 L -22 -30 Z" fill="#16181D"/><circle cx="0" cy="-34" r="9" fill="#16181D"/><path d="M -4 -24 L 4 -24 L 2 8 L -2 8 Z" fill="#16181D"/></g>
    <g transform="rotate(330) translate(0 -58) scale(0.45)"><path d="M -36 -30 L 0 32 L 36 -30 L 22 -30 L 0 10 L -22 -30 Z" fill="#16181D"/><circle cx="0" cy="-34" r="9" fill="#16181D"/><path d="M -4 -24 L 4 -24 L 2 8 L -2 8 Z" fill="#16181D"/></g>
  </g>
  <circle cx="0" cy="0" r="14" fill="#16181D"/>
  <circle cx="0" cy="0" r="28" fill="none" stroke="#16181D" stroke-width="5"/>
</svg>
