<svg xmlns="http://www.w3.org/2000/svg" viewBox="-100 -100 200 200">
  <defs>
    <linearGradient id="bg" x1="0%" y1="0%" x2="100%" y2="100%">
      <stop offset="0%" stop-color="#1847D6"/>
      <stop offset="100%" stop-color="#6B44F8"/>
    </linearGradient>
  </defs>
  <rect x="-100" y="-100" width="200" height="200" rx="32" fill="url(#bg)"/>
  <g fill="white">
    <g transform="rotate(0) translate(0 -58) scale(0.45)"><path d="M -36 -30 L 0 32 L 36 -30 L 22 -30 L 0 10 L -22 -30 Z"/><circle cx="0" cy="-34" r="9"/><path d="M -4 -24 L 4 -24 L 2 8 L -2 8 Z"/></g>
    <g transform="rotate(30) translate(0 -58) scale(0.45)"><path d="M -36 -30 L 0 32 L 36 -30 L 22 -30 L 0 10 L -22 -30 Z"/><circle cx="0" cy="-34" r="9"/><path d="M -4 -24 L 4 -24 L 2 8 L -2 8 Z"/></g>
    <g transform="rotate(60) translate(0 -58) scale(0.45)"><path d="M -36 -30 L 0 32 L 36 -30 L 22 -30 L 0 10 L -22 -30 Z"/><circle cx="0" cy="-34" r="9"/><path d="M -4 -24 L 4 -24 L 2 8 L -2 8 Z"/></g>
    <g transform="rotate(90) translate(0 -58) scale(0.45)"><path d="M -36 -30 L 0 32 L 36 -30 L 22 -30 L 0 10 L -22 -30 Z"/><circle cx="0" cy="-34" r="9"/><path d="M -4 -24 L 4 -24 L 2 8 L -2 8 Z"/></g>
    <g transform="rotate(120) translate(0 -58) scale(0.45)"><path d="M -36 -30 L 0 32 L 36 -30 L 22 -30 L 0 10 L -22 -30 Z"/><circle cx="0" cy="-34" r="9"/><path d="M -4 -24 L 4 -24 L 2 8 L -2 8 Z"/></g>
    <g transform="rotate(150) translate(0 -58) scale(0.45)"><path d="M -36 -30 L 0 32 L 36 -30 L 22 -30 L 0 10 L -22 -30 Z"/><circle cx="0" cy="-34" r="9"/><path d="M -4 -24 L 4 -24 L 2 8 L -2 8 Z"/></g>
    <g transform="rotate(180) translate(0 -58) scale(0.45)"><path d="M -36 -30 L 0 32 L 36 -30 L 22 -30 L 0 10 L -22 -30 Z"/><circle cx="0" cy="-34" r="9"/><path d="M -4 -24 L 4 -24 L 2 8 L -2 8 Z"/></g>
    <g transform="rotate(210) translate(0 -58) scale(0.45)"><path d="M -36 -30 L 0 32 L 36 -30 L 22 -30 L 0 10 L -22 -30 Z"/><circle cx="0" cy="-34" r="9"/><path d="M -4 -24 L 4 -24 L 2 8 L -2 8 Z"/></g>
    <g transform="rotate(240) translate(0 -58) scale(0.45)"><path d="M -36 -30 L 0 32 L 36 -30 L 22 -30 L 0 10 L -22 -30 Z"/><circle cx="0" cy="-34" r="9"/><path d="M -4 -24 L 4 -24 L 2 8 L -2 8 Z"/></g>
    <g transform="rotate(270) translate(0 -58) scale(0.45)"><path d="M -36 -30 L 0 32 L 36 -30 L 22 -30 L 0 10 L -22 -30 Z"/><circle cx="0" cy="-34" r="9"/><path d="M -4 -24 L 4 -24 L 2 8 L -2 8 Z"/></g>
    <g transform="rotate(300) translate(0 -58) scale(0.45)"><path d="M -36 -30 L 0 32 L 36 -30 L 22 -30 L 0 10 L -22 -30 Z"/><circle cx="0" cy="-34" r="9"/><path d="M -4 -24 L 4 -24 L 2 8 L -2 8 Z"/></g>
    <g transform="rotate(330) translate(0 -58) scale(0.45)"><path d="M -36 -30 L 0 32 L 36 -30 L 22 -30 L 0 10 L -22 -30 Z"/><circle cx="0" cy="-34" r="9"/><path d="M -4 -24 L 4 -24 L 2 8 L -2 8 Z"/></g>
    <circle cx="0" cy="0" r="14"/>
  </g>
  <circle cx="0" cy="0" r="28" fill="none" stroke="white" stroke-width="5"/>
</svg>
